<?xml version="1.0" encoding="iso-8859-1"?>
<!-- Generator: Adobe Illustrator 19.0.0, SVG Export Plug-In . SVG Version: 6.00 Build 0)  -->
<svg version="1.1" id="Layer_1" xmlns="http://www.w3.org/2000/svg" xmlns:xlink="http://www.w3.org/1999/xlink" x="0px" y="0px"
	 viewBox="0 0 502 502" style="enable-background:new 0 0 502 502;" xml:space="preserve">
<g>
	<g>
		<path style="fill:#F0EFE4;" d="M251,20.086H87.591C44.739,20.086,10,54.824,10,97.676V251h241V20.086z"/>
		<path style="fill:#F77E65;" d="M414.41,20.086H251V251H10v153.323c0,42.852,34.739,77.591,77.591,77.591H251h163.41
			c42.852,0,77.591-34.739,77.591-77.591V251V97.677C492,54.824,457.262,20.086,414.41,20.086z"/>
	</g>
	<g>
		<path d="M414.41,10.086H251H87.591C39.293,10.086,0,49.379,0,97.677V251v153.323c0,48.298,39.293,87.591,87.591,87.591H251h163.41
			c48.297,0,87.59-39.293,87.59-87.591V251V97.677C502,49.379,462.707,10.086,414.41,10.086z M482,97.677V241H261V30.086h153.41
			C451.68,30.086,482,60.407,482,97.677z M20,97.677c0-37.27,30.321-67.591,67.591-67.591H241V241H20V97.677z M20,404.323V261h221
			v210.914H87.591C50.321,471.914,20,441.593,20,404.323z M482,404.323c0,37.27-30.32,67.591-67.59,67.591H261V261h221V404.323z"/>
		<path d="M197.563,379.018H63.792c-5.522,0-10,4.478-10,10s4.478,10,10,10h133.771c5.522,0,10-4.478,10-10
			S203.085,379.018,197.563,379.018z"/>
		<path d="M197.563,325.934H63.792c-5.522,0-10,4.478-10,10s4.478,10,10,10h133.771c5.522,0,10-4.478,10-10
			S203.085,325.934,197.563,325.934z"/>
		<path d="M197.563,128.463h-56.885V71.577c0-5.522-4.478-10-10-10s-10,4.478-10,10v56.886H63.792c-5.522,0-10,4.478-10,10
			s4.478,10,10,10h56.886v56.885c0,5.522,4.478,10,10,10c5.522,0,10-4.478,10-10v-56.885h56.885c5.522,0,10-4.478,10-10
			S203.085,128.463,197.563,128.463z"/>
		<path d="M356.813,148.463h79.626c5.522,0,10-4.478,10-10s-4.478-10-10-10h-79.626c-5.522,0-10,4.478-10,10
			S351.291,148.463,356.813,148.463z"/>
		<path d="M302.669,148.463h16.986c5.522,0,10-4.478,10-10s-4.478-10-10-10h-16.986c-5.522,0-10,4.478-10,10
			S297.146,148.463,302.669,148.463z"/>
		<path d="M314.606,419.547c1.953,1.952,4.512,2.929,7.071,2.929s5.118-0.977,7.071-2.929l40.224-40.224l40.224,40.224
			c1.953,1.952,4.512,2.929,7.071,2.929s5.118-0.977,7.071-2.929c3.905-3.905,3.905-10.237,0-14.143l-40.224-40.224l40.224-40.224
			c3.905-3.905,3.905-10.237,0-14.143c-3.906-3.904-10.236-3.904-14.143,0l-40.224,40.224l-40.224-40.224
			c-3.906-3.904-10.236-3.904-14.143,0c-3.905,3.905-3.905,10.237,0,14.143l40.224,40.224l-40.224,40.224
			C310.701,409.31,310.701,415.642,314.606,419.547z"/>
	</g>
</g>
<g>
</g>
<g>
</g>
<g>
</g>
<g>
</g>
<g>
</g>
<g>
</g>
<g>
</g>
<g>
</g>
<g>
</g>
<g>
</g>
<g>
</g>
<g>
</g>
<g>
</g>
<g>
</g>
<g>
</g>
</svg>
